<svg xmlns="http://www.w3.org/2000/svg" xmlns:xlink="http://www.w3.org/1999/xlink" width="142" height="117" viewBox="0 0 142 117">
    <defs>
        <path id="a" d="M.1.13h60.448v28.366H.099z"/>
    </defs>
    <g fill="none" fill-rule="evenodd">
        <path fill="#B2D7CA" fill-rule="nonzero" d="M0 28.887L.551 117 142 116.114 141.449 28z"/>
        <path fill="#E43939" fill-rule="nonzero" d="M81.962 82.39a6.497 6.497 0 0 1-4.886 3.268 7.62 7.62 0 0 0 .634-3.049c0-1.114-.24-2.172-.668-3.124a7.183 7.183 0 0 0 2.98-.973 7.354 7.354 0 0 0 2.265-2.089c.128.3.235.613.32.935a6.72 6.72 0 0 1-.645 5.032m-5.66-11.268c-1.194-1.676-3.047-2.83-5.167-3.057a6.495 6.495 0 0 1 1.972-1.805 6.358 6.358 0 0 1 2.99-.879c.477.923.749 1.973.749 3.087a6.73 6.73 0 0 1-.544 2.654m0 7.07a7.398 7.398 0 0 0-3.45-2.653 7.399 7.399 0 0 0 3.45-2.654c.348.813.544 1.71.544 2.654 0 .943-.196 1.84-.544 2.653m-.204 7.504a6.356 6.356 0 0 1-2.99-.878 6.518 6.518 0 0 1-1.975-1.805c2.121-.227 3.975-1.381 5.169-3.057.348.813.544 1.71.544 2.653a6.71 6.71 0 0 1-.748 3.087m-5.735 3.545c-2.134 0-4.03-1.06-5.211-2.693a7.187 7.187 0 0 0 2.899-.965 7.364 7.364 0 0 0 2.312-2.155 7.371 7.371 0 0 0 2.312 2.156 7.188 7.188 0 0 0 2.9.964c-1.182 1.632-3.078 2.693-5.212 2.693m-6.482-6.632c0-.943.195-1.84.544-2.653 1.194 1.676 3.046 2.829 5.166 3.057a6.496 6.496 0 0 1-1.972 1.805 6.36 6.36 0 0 1-2.99.878 6.71 6.71 0 0 1-.748-3.087m-3.177-10.044a7.361 7.361 0 0 0-2.265 2.088 6.762 6.762 0 0 1 .326-5.965 6.501 6.501 0 0 1 4.885-3.269 7.611 7.611 0 0 0-.633 3.049c0 1.114.24 2.172.667 3.124a7.197 7.197 0 0 0-2.98.973m2.947 6.024a6.371 6.371 0 0 1-2.514-.842 6.507 6.507 0 0 1-2.24-2.208 6.512 6.512 0 0 1 2.24-2.208 6.379 6.379 0 0 1 2.514-.843 7.617 7.617 0 0 0-.634 3.05c0 1.087.228 2.119.634 3.051m0 7.069a6.497 6.497 0 0 1-4.886-3.268 6.762 6.762 0 0 1-.326-5.966 7.36 7.36 0 0 0 2.265 2.088c.944.558 1.96.876 2.98.973a7.614 7.614 0 0 0-.667 3.124c0 1.086.227 2.117.633 3.049m.775-12.773a7.398 7.398 0 0 0 3.45 2.654 7.397 7.397 0 0 0-3.45 2.653 6.718 6.718 0 0 1-.544-2.653c0-.944.195-1.841.544-2.654m.203-7.504c1.048.04 2.077.34 2.991.879a6.489 6.489 0 0 1 1.973 1.804c-2.12.228-3.973 1.382-5.167 3.058a6.722 6.722 0 0 1-.544-2.654c0-1.114.271-2.164.747-3.087m4.49 7.954a7.29 7.29 0 0 0-3.97-1.73c1.046-1.447 2.654-2.446 4.492-2.656a7.712 7.712 0 0 0-.521 4.386m.521 8.793c-1.838-.21-3.446-1.208-4.492-2.656a7.295 7.295 0 0 0 3.97-1.73 7.712 7.712 0 0 0 .522 4.386m1.967-8.793a7.708 7.708 0 0 0-.52-4.386c1.837.21 3.445 1.209 4.491 2.657a7.296 7.296 0 0 0-3.97 1.729m0 4.407a7.29 7.29 0 0 0 3.97 1.73c-1.046 1.448-2.654 2.446-4.492 2.656a7.712 7.712 0 0 0 .522-4.386m-1.245-15.906c2.134 0 4.03 1.06 5.212 2.694a7.186 7.186 0 0 0-2.9.964 7.36 7.36 0 0 0-2.312 2.155 7.353 7.353 0 0 0-2.312-2.155 7.18 7.18 0 0 0-2.9-.964c1.183-1.633 3.078-2.694 5.212-2.694m6.712 10.652a6.38 6.38 0 0 1 2.515.843 6.511 6.511 0 0 1 2.242 2.205 6.519 6.519 0 0 1-2.242 2.21 6.373 6.373 0 0 1-2.515.843 7.613 7.613 0 0 0 .635-3.05 7.617 7.617 0 0 0-.635-3.051m0-7.069a6.499 6.499 0 0 1 4.887 3.269 6.76 6.76 0 0 1 .325 5.965 7.356 7.356 0 0 0-2.265-2.088 7.197 7.197 0 0 0-2.98-.973c.428-.952.668-2.01.668-3.124a7.62 7.62 0 0 0-.634-3.049m5.634 2.826a7.32 7.32 0 0 0-6.113-3.748c-1.3-2.126-3.607-3.545-6.234-3.545s-4.934 1.419-6.233 3.545a7.322 7.322 0 0 0-6.114 3.748 7.669 7.669 0 0 0-.117 7.294 7.666 7.666 0 0 0 .117 7.293 7.319 7.319 0 0 0 6.114 3.748c1.299 2.127 3.606 3.545 6.233 3.545s4.934-1.418 6.234-3.545a7.318 7.318 0 0 0 6.113-3.748 7.669 7.669 0 0 0 .118-7.293 7.67 7.67 0 0 0-.118-7.294"/>
        <path fill="#FFF" fill-rule="nonzero" d="M97.466 73.36a28.062 28.062 0 0 0-3.317-11.32 27.538 27.538 0 0 0-7.297-8.634c-.06-.046-.12-.09-.183-.13a26.924 26.924 0 0 0-7.504-4.059 26.449 26.449 0 0 0-8.843-1.472h-.01c-1.44.004-2.603 1.182-2.599 2.654.004 1.473 1.178 2.58 2.617 2.576h.01c4.86-.012 9.478 1.58 13.353 4.606 4.968 3.881 8.09 9.824 8.575 16.193A22.792 22.792 0 0 1 89.482 86.6v.001C85.865 93.115 79.355 97.35 72.066 97.93a21.687 21.687 0 0 1-3.698-.021c-5.108-.47-9.926-2.786-13.571-6.524-3.684-3.778-5.935-8.794-6.34-14.122a22.875 22.875 0 0 1 2.283-11.866c2.23-4.515 5.881-8.13 10.332-10.255l.586 1.75 2.755-5.764-.011-.004.007-.006-.012.003-5.616-2.812.592 1.765c-5.736 2.592-10.444 7.164-13.286 12.916a28.313 28.313 0 0 0-2.828 14.687c.501 6.592 3.288 12.798 7.847 17.475 4.507 4.623 10.471 7.488 16.796 8.069a26.593 26.593 0 0 0 4.569.027c9.017-.718 17.07-5.957 21.543-14.013l.001-.002c2.68-4.828 3.873-10.316 3.45-15.872"/>
        <path fill="#E43939" fill-rule="nonzero" d="M89.014 38.018c-.905-1.427-2.11-3.554-2.767-5.644-.15-.552-.46-1.918-.41-3.586a15.793 15.793 0 0 1 1.283-4.655c.643-1.082 1.58-2.11 2.93-2.972 5.872-3.754 10.259-1.488 13.378.941.428.364.84.759 1.21 1.195a28.625 28.625 0 0 1 2.272 3.073L89.014 38.018zm37.55 13.056l-15.809-25.42c-.557-1.135-2.031-3.649-5.28-6.62-3.294-3.012-7.064-3.664-8.515-3.805 0 0-5.466-.954-10.358 3.17-.258.218-.495.435-.72.652-.976.779-2.818 2.83-4.002 7.77-1.431 5.964 3.512 12.892 4.024 13.587l16.437 26.433c1.224 1.968 3.776 2.55 5.7 1.297l17.255-11.232c1.924-1.252 2.491-3.863 1.267-5.832z"/>
        <path fill="#AF1E1E" fill-rule="nonzero" d="M107.666 41.072c2.23 1.095 3.17 3.832 2.099 6.113-1.07 2.28-3.745 3.242-5.974 2.147-2.23-1.094-3.17-3.831-2.1-6.112 1.07-2.28 3.745-3.243 5.975-2.148"/>
        <path fill="#AF1E1E" fill-rule="nonzero" d="M113.404 53.174l-4 2.567a.172.172 0 0 1-.24-.056l-4.933-8.046a.18.18 0 0 1 .055-.245l3.999-2.567a.172.172 0 0 1 .24.056l4.934 8.046a.18.18 0 0 1-.055.245"/>
        <g transform="translate(40.485)">
            <mask id="b" fill="#fff">
                <use xlink:href="#a"/>
            </mask>
            <path fill="#2A906D" fill-rule="nonzero" d="M8.963 28.44c1.287-3.419 6.655-17.195 10.491-19.741C23.77 5.834 36.601 5.75 40.952 8.56c2.156 1.393 4.83 6.27 7.006 10.904l.001.002a150.218 150.218 0 0 1 3.725 8.7l8.864-.058C59.5 25.304 53.037 8.61 45.39 3.017 39.995-.928 20.294-.8 14.948 3.212 7.371 8.902 1.111 25.677.1 28.496l8.864-.056z" mask="url(#b)"/>
        </g>
        <path fill="#2A906D" fill-rule="nonzero" d="M28.335 44.822c4.164 5.88 2.882 14.098-2.864 18.36-5.746 4.26-13.78 2.948-17.945-2.931-4.164-5.88-2.882-14.099 2.864-18.36 5.747-4.26 13.78-2.948 17.945 2.93"/>
        <path fill="#FFF" fill-rule="nonzero" d="M20.938 56.782a3.082 3.082 0 0 0 .665-4.258c-.056-.079-.2-.26-.2-.26-.605-.687-1.37-.968-2.16-1.34-1.24-.513-2.537-1.107-3.271-3.133-.038-.083-.086-.129-.15-.128-.066 0-.113.07-.125.153-.042.27-.587 5.935 1.079 8.287.944 1.333 2.821 1.674 4.162.68"/>
        <path fill="#7FBCA7" fill-rule="nonzero" d="M39.035 73.309c.649 7.56-4.815 14.228-12.204 14.893-7.39.664-13.907-4.926-14.557-12.486-.65-7.56 4.815-14.228 12.204-14.893 7.39-.664 13.907 4.926 14.557 12.486"/>
        <path fill="#FFF" fill-rule="nonzero" d="M27.806 75.163c-.486-.354-.404-1.293.134-2.066.539-.774 1.393-1.067 1.88-.713.485.354.402 1.292-.136 2.065-.5.72-1.393 1.067-1.878.714m-4.39.997c1.482 1.678 3.919 1.756 3.919 1.756.054.04.146.024.146.024.216.157.301.386.24.59-.1.26-.4.458-.654.357-.093.016-2.445.08-4.28-1.938-.179-.212-.274-.526-.082-.82.155-.257.48-.222.711.03m2.638-6.432c.486.353.442 1.236-.096 2.01-.538.774-1.377 1.161-1.863.808-.486-.355-.442-1.238.042-2.05.63-.79 1.431-1.122 1.917-.768m4.097-1.68c-3.51-2.555-8.317-1.726-10.815 1.865-2.498 3.592-1.688 8.509 1.823 11.065 3.51 2.555 8.316 1.726 10.814-1.865 2.498-3.591 1.688-8.509-1.822-11.064"/>
    </g>
</svg>
