<svg id="Layer_1" data-name="Layer 1" xmlns="http://www.w3.org/2000/svg" xmlns:xlink="http://www.w3.org/1999/xlink" viewBox="0 0 257 317"><defs><style>.cls-1{fill:#fff;}.cls-2{mask:url(#mask);}.cls-3{fill:#ffc8a3;}.cls-4{fill:#ffddc7;}.cls-5{fill:#ff6500;}.cls-6{fill:#f7f9f9;}.cls-7{fill:#ffa365;}.cls-10,.cls-12,.cls-8,.cls-9{fill:none;}.cls-8{stroke:#ffddc7;}.cls-10,.cls-8,.cls-9{stroke-width:2px;}.cls-9{stroke:#ff6500;}.cls-10{stroke:#f7f9f9;}.cls-11{mask:url(#mask-39);}.cls-12{stroke:#ffc8a3;stroke-width:3px;}</style><mask id="mask" x="0.1" y="0.14" width="256" height="316.06" maskUnits="userSpaceOnUse"><g id="mask-2"><polygon id="path-1" class="cls-1" points="0.1 0.14 256.1 0.14 256.1 316.19 0.1 316.19 0.1 0.14"/></g></mask><mask id="mask-39" x="0.1" y="-1.22" width="256" height="317.42" maskUnits="userSpaceOnUse"><g id="mask-2-40" data-name="mask-2"><polygon id="path-1-39" data-name="path-1" class="cls-1" points="0.1 0.14 256.1 0.14 256.1 316.19 0.1 316.19 0.1 0.14"/></g></mask></defs><g id="App-download-landing-page"><g id="Desktop--Copy-3"><g id="Group-71"><g class="cls-2"><path id="Fill-1" class="cls-3" d="M231.47,305.69V273.85l-30.81-29.76a71.85,71.85,0,0,1-16.21,1.78q-5.58,0-15.2-3.74a51.69,51.69,0,0,0-18.75-3.74q-15.6,0-21.19,11.63-5.61-11.62-21.2-11.63a51.69,51.69,0,0,0-18.75,3.74q-9.62,3.74-15.2,3.74A71.85,71.85,0,0,1,58,244.09L27.15,273.85V305.2Z"/></g><g class="cls-2"><path id="Fill-3" class="cls-4" d="M130.54,296.67V282.44c5-7.59,11.76-12.1,21.11-12.1q11.53,0,25.65,4.44c9.42,3,17,4.34,22.86,4.31a136.69,136.69,0,0,0,28.35-2.79v29.39h-83.7c-3.79-5.36-6.71-8.35-14.27-9"/></g><g class="cls-2"><path id="Fill-4" class="cls-4" d="M113.61,305.69H29.9V276.3a136.88,136.88,0,0,0,28.35,2.79c5.83,0,13.45-1.35,22.86-4.31s18-4.44,25.65-4.44c9.36,0,16.14,4.51,21.12,12.1v14.23c-7.57.67-10.49,3.66-14.27,9"/></g><g class="cls-2"><path id="Fill-5" class="cls-5" d="M238.32,311.81v-4.3l-7.59-2.31-82,.2c-1.56,0-3.89-.12-4-.06-.21.22-4.23-8.76-15.41-9h-.07c-11.18.28-15.2,9.26-15.41,9-.07-.06-2.4.06-4,.06l-82-.2-7.59,2.31v4.3h93.52c6.4,2.81,9,4.39,15.45,4.38h.07c6.46,0,9.05-1.57,15.45-4.38Z"/></g><g class="cls-2"><path id="Fill-6" class="cls-4" d="M161.19,132.71a10.06,10.06,0,1,1-7.77-11.92,10.05,10.05,0,0,1,7.77,11.92"/></g><g class="cls-2"><path id="Fill-7" class="cls-3" d="M156.57,137.21c-14,5.68-26.59,7.18-28.15,3.34s8.52-11.57,22.5-17.25,26.59-7.19,28.15-3.34-8.51,11.56-22.5,17.25m-6-14.88c-15,6.11-25.75,14.6-24,19s15.4,3,30.42-3.14,25.75-14.6,24-19-15.39-3-30.41,3.13"/></g><g class="cls-2"><path id="Fill-8" class="cls-5" d="M129.39,141a3.24,3.24,0,1,1-4.22-1.78,3.24,3.24,0,0,1,4.22,1.78"/></g><g class="cls-2"><path id="Fill-9" class="cls-3" d="M144.68,133.84c-4.6-14.38-5.13-27.07-1.18-28.33s10.87,9.37,15.47,23.76,5.13,27.07,1.19,28.33-10.88-9.37-15.48-23.76M160,129c-4.94-15.45-12.59-26.8-17.09-25.36s-4.13,15.12.81,30.57,12.59,26.8,17.08,25.37,4.14-15.13-.8-30.58"/></g><g class="cls-2"><path id="Fill-10" class="cls-5" d="M143.28,107.38a4.23,4.23,0,1,1,2.74-5.31,4.22,4.22,0,0,1-2.74,5.31"/></g><g class="cls-2"><path id="Fill-11" class="cls-5" d="M161.62,162.66a4.23,4.23,0,1,1,2.74-5.32,4.23,4.23,0,0,1-2.74,5.32"/></g><g class="cls-2"><path id="Fill-12" class="cls-4" d="M154.54,132.18c-1,2-5.32-1.09-8.82-2.34-1.49-.53-2.42-1.1-2.87-2.55-.4-1.25-.39-1.35-.11-1.78,2-3.07,6.72-5.55,10.68-4.72,5.43,1.15,3.67,6.45,1.12,11.39"/></g><g class="cls-2"><path id="Fill-13" class="cls-5" d="M88.07,192c-1.3-6.31-8.61-8.21-12.42-6.92l7.25,1.74c-1.85,2.8-5,3.3-8.42,2-3-1.15-7-5.5-6-9a1.53,1.53,0,0,1,.62.15c2.38,1.77,4.78,1.71,7.34.32,2.14-1.16,4.06-.93,5.58.54a10,10,0,0,1,1.27,1.9l.94,1.49c.46-2,.42-3.21-1.07-4.42a5.64,5.64,0,0,1-1-7.47,17.16,17.16,0,0,1,4.42-4.49c2.82-2,5-4.23,5.31-7.8a5.57,5.57,0,0,1,.37-1,14,14,0,0,1,5,8.61c1,5.2.26,10-4.4,13.37-1.16.83-2.78,1-4.34,1.56-.25-3.85,1.65-6.44,3.26-9.24-3.35,2-5.77,8.41-4.57,11.88a6,6,0,0,0,6.54,4"/></g><g class="cls-2"><path id="Fill-14" class="cls-4" d="M120,175.9l-9.11,4.43-.49.23h0l-10.73,5.22h0c-1.47.74-3,1.45-4.44,2.18l-19.27,9.37a3,3,0,0,0-1.65,3.7,9.67,9.67,0,0,0,.67,1.42A2.55,2.55,0,0,0,77.09,204a1.71,1.71,0,0,1,1.62,1.1.41.41,0,0,0,.07.11c5.43,7.36,12.7,11,21.85,10.73a1.84,1.84,0,0,0,.76-.21q8.07-3.9,16.13-7.84a1.57,1.57,0,0,0,.57-.41q9.14-11.08,4.8-24.77a.77.77,0,0,1,.23-.75c.65-.79,1.46-.49-.14-4-.8-1.74-1.3-2.9-3-2.06"/></g><g class="cls-2"><path id="Fill-15" class="cls-3" d="M117.32,186c-.35.36-.8.79-1.33,1.28s-1.18,1-1.89,1.59-1.5,1.21-2.4,1.8-1.84,1.25-2.87,1.86-2.15,1.19-3.28,1.75-2.29,1.13-3.46,1.65-2.32,1.08-3.49,1.55l-1.71.72-1.69.64c-2.21.85-4.28,1.52-6,2a51.66,51.66,0,0,1-5.84,1.42l0-.24s2.32-.65,5.74-2c.86-.33,1.78-.72,2.75-1.12s2-.84,3-1.34l1.58-.73,1.61-.79c1.08-.51,2.14-1.11,3.22-1.66s2.1-1.21,3.12-1.8,2-1.25,2.94-1.81,1.88-1.14,2.8-1.63c.46-.25.9-.5,1.31-.76l1.23-.7c.79-.46,1.56-.85,2.2-1.24l1.73-1c1-.53,1.59-.82,1.59-.82l.2.13s-.36.42-1.08,1.14m.42,3.95a23.46,23.46,0,0,1-2.56,2c-.5.34-1.05.66-1.62,1l-1.71,1c-2.28,1.3-4.62,2.51-6.4,3.33s-3,1.33-3,1.33l-.07-.13s1.13-.64,2.77-1.62S109,194.42,111,193c1-.7,2-1.45,3-2.11.48-.32,1-.63,1.42-.91s.9-.55,1.33-.79c.83-.48,1.56-.87,2.09-1.13s.85-.41.85-.41l.14.08a14.58,14.58,0,0,1-2.06,2.17"/></g><g class="cls-2"><path id="Fill-16" class="cls-6" d="M110.33,180.58c.69-2.33,2.17-7.34,2.87-9.66a.87.87,0,0,1,.32-.39,4.93,4.93,0,1,0-7.23-2.41,1,1,0,0,1,0,.63c-1.77,4.69-4.6,12.2-6.38,16.88Z"/></g><g class="cls-2"><path id="Fill-17" class="cls-3" d="M143.25,40a12.48,12.48,0,1,1-15.74-8.2A12.52,12.52,0,0,1,143.25,40m-25-5a14.85,14.85,0,0,0-2.51,10,15.77,15.77,0,0,0,7.59,12.25l-.56,1.46c-.81,2.09-7,18.47-7,18.47l5.14,2.09.43-1.08c.86-2.25,6.31-16.69,7.19-19,9.58,1.28,16.23-4.78,18-11.35A15.71,15.71,0,0,0,118.22,35"/></g><g class="cls-2"><path id="Fill-18" class="cls-4" d="M143.25,40a12.48,12.48,0,1,1-15.74-8.2A12.52,12.52,0,0,1,143.25,40"/></g><g class="cls-2"><path id="Fill-19" class="cls-6" d="M139.16,44c-.14,3.35-3.77,8.53-3.77,8.53a9.9,9.9,0,0,0,5.89-8.4c.38-4.88-6.09-9.62-6.09-9.62s4.14,5.57,4,9.49"/></g><g class="cls-2"><path id="Fill-20" class="cls-5" d="M15,122.14a4,4,0,0,0,1.51-7.8,4,4,0,0,0-4.67,3.1,4,4,0,0,0,3.16,4.7m5.14-12.07a.84.84,0,0,0,.47,1.26,2.23,2.23,0,0,1,.5.37.55.55,0,0,0,.81,0,4.71,4.71,0,0,1,.48-.29c.6-.35.77-.3,1.18.23.19.25.24.5,0,.7-.95.72-.71,1.49-.15,2.31.18.26.32.45.67.37s.41,0,.62,0c.43-.08.75,0,.89.49s0,.8-.49,1a1.17,1.17,0,0,0-.95,1.48c.14,1.13-.05.81,1,1.25.36.15.73.19.63.75s-.26.85-.87.73c-.14,0-.3,0-.45,0-.43,0-.75,0-.83.53a.31.31,0,0,1-.05.1,1.31,1.31,0,0,0,.33,2c.36.25.33.56.08.93a.65.65,0,0,1-.9.3c-1.21-.5-1.55-.42-2.38.53a.66.66,0,0,0-.1.46,3.41,3.41,0,0,0,.23.75.67.67,0,0,1-.32,1,.63.63,0,0,1-1-.27c-.4-.78-.93-.85-1.75-.59-.62.19-.91.44-.91,1a1.66,1.66,0,0,0,0,.22c0,.45-.1.75-.66.77s-.77-.16-.81-.69c0-.2-.09-.4-.12-.61a.56.56,0,0,0-.64-.56h-.05a1.42,1.42,0,0,0-2.06.88c-.14.33-.43.37-.76.21s-.73-.31-.53-.77a1.54,1.54,0,0,0-.88-2.18c-.31-.17-.52-.25-.8,0s-.38.19-.54.32c-.58.46-.9.14-1.24-.44A.6.6,0,0,1,8,124,1.37,1.37,0,0,0,8.19,122c-.3-.43-.52-.7-1-.57-.16,0-.34,0-.5.06-.45.08-.65-.14-.76-.56s-.07-.71.38-.85c.81-.25,1.24-.66,1.06-1.63-.15-.82,0-.84-.94-1.13s-.85-.35-.6-1.08c.06-.18.37-.43.53-.41a1.45,1.45,0,0,0,1.84-1.14c.17-.51.22-.82-.2-1.15-.15-.12-.26-.29-.4-.41-.32-.29-.26-.56,0-.89s.48-.48.9-.29c1.28.57,1.36.55,2.33-.46a.73.73,0,0,0,.14-.5,2.6,2.6,0,0,0-.23-.75.68.68,0,0,1,.36-1c.48-.26.72,0,1,.31.62.83.62.77,1.63.58.7-.13,1-.41,1-1.13,0-.36-.06-.86.59-.91s.87.12.91.7c0,.15.07.29.09.44,0,.47.3.6.75.73a1.43,1.43,0,0,0,2-.89c.14-.34.43-.39.76-.24s.69.28.54.77c-.05.16-.07.33-.11.52"/></g><g class="cls-2"><path id="Fill-21" class="cls-6" d="M13.44,117.76a2.38,2.38,0,0,1,4.66.93,2.36,2.36,0,0,1-2.77,1.88,2.42,2.42,0,0,1-1.89-2.81M15,122.58a4.38,4.38,0,0,0,5.15-3.49,4.42,4.42,0,0,0-8.67-1.74A4.49,4.49,0,0,0,15,122.58"/></g><g class="cls-2"><path id="Fill-22" class="cls-4" d="M50.7,132.56A9.17,9.17,0,0,0,59.51,123,9.27,9.27,0,0,0,41,123.6a9.43,9.43,0,0,0,9.71,9m5.18-30.14c-.34,1.44.28,2.28,1.74,2.6a4.73,4.73,0,0,1,1.33.57,1.3,1.3,0,0,0,1.86-.34,11.68,11.68,0,0,1,.94-.92c1.18-1.11,1.59-1.1,2.8-.11.57.47.81,1,.34,1.58-1.76,2.16-.81,3.77.92,5.33.54.5,1,.84,1.71.49.43-.21.93-.27,1.37-.45,1-.42,1.68-.48,2.29.64s.42,1.82-.6,2.41c-1.58.91-2,2-1.35,3.88.9,2.47.32,1.86,3,2.29.88.14,1.74,0,1.83,1.35s-.13,2.08-1.58,2.14c-.35,0-.68.2-1,.24-1,.12-1.68.5-1.59,1.65a.88.88,0,0,1-.06.26c-.72,2-.31,3.55,1.83,4.41,1,.39,1,1.11.68,2.06a1.51,1.51,0,0,1-1.87,1.17c-3-.48-3.74-.12-5.11,2.5a1.44,1.44,0,0,0,0,1.08,8,8,0,0,0,.93,1.6,1.56,1.56,0,0,1-.19,2.4,1.47,1.47,0,0,1-2.39-.07c-1.34-1.57-2.59-1.42-4.31-.41-1.3.77-1.81,1.48-1.5,2.88,0,.17,0,.35.06.52.27,1,.19,1.76-1.08,2.09s-1.85.05-2.21-1.11c-.14-.46-.43-.87-.6-1.32a1.32,1.32,0,0,0-1.75-1l-.13,0c-2.36-.28-3.82.62-4.2,3.09-.13.84-.79,1.08-1.62.9s-1.8-.32-1.61-1.47c.43-2.59-.82-3.82-3.16-4.47-.8-.22-1.31-.28-1.85.34-.32.36-.75.63-1,1-1.07,1.37-2,.82-3-.32a1.35,1.35,0,0,1,0-1.28c1.33-1.83,1.15-3.28-.57-4.85-.9-.82-1.55-1.31-2.69-.73-.35.18-.74.25-1.11.41-1,.41-1.54,0-2-.86s-.54-1.58.4-2.13c1.71-1,2.45-2.18,1.52-4.29-.77-1.78-.53-1.88-2.73-2-1.89-.15-2.12-.33-2-2.12,0-.45.61-1.19,1-1.22,2.24-.2,3.34-1.18,3.55-3.57.11-1.25,0-2-1.08-2.52-.4-.19-.73-.5-1.11-.71-.89-.49-.91-1.13-.54-2s.82-1.34,1.88-1.14c3.21.61,3.37.52,5-2.31a1.53,1.53,0,0,0,.06-1.19,5.92,5.92,0,0,0-.93-1.59,1.58,1.58,0,0,1,.29-2.49c1-.85,1.6-.48,2.39.18,1.84,1.55,1.81,1.42,4,.44,1.51-.67,2.06-1.48,1.68-3.12-.19-.81-.61-1.9.86-2.37,1.27-.41,2-.18,2.44,1.09.1.34.32.63.43,1,.34,1,1,1.2,2.1,1.25,2.38.13,3.71-.73,4.08-3.1.14-.84.76-1.12,1.6-1s1.71.26,1.63,1.46c0,.39,0,.79,0,1.24"/></g><g class="cls-2"><path id="Fill-23" class="cls-5" d="M42,121.61a8.4,8.4,0,0,1,16.48,3.3,8.32,8.32,0,0,1-9.79,6.64A8.54,8.54,0,0,1,42,121.61m6.37,11.69a10.08,10.08,0,0,0,11.85-8,10.18,10.18,0,0,0-20-4,10.36,10.36,0,0,0,8.11,12"/></g><g class="cls-2"><path id="Fill-24" class="cls-3" d="M17,156.51a10.45,10.45,0,0,0,10-10.95,10.56,10.56,0,0,0-21.1.74A10.73,10.73,0,0,0,17,156.51m3.37-24.93c-.24,1,.19,1.57,1.19,1.79a3.91,3.91,0,0,1,.92.39.89.89,0,0,0,1.28-.23c.2-.23.43-.42.65-.63.81-.76,1.09-.76,1.92-.08.39.32.56.69.24,1.09-1.21,1.49-.56,2.59.63,3.67.38.34.66.58,1.18.33.29-.14.64-.18.94-.31.66-.28,1.16-.32,1.58.45a1.05,1.05,0,0,1-.42,1.66,1.87,1.87,0,0,0-.92,2.67c.62,1.7.22,1.28,2,1.57.61.1,1.21,0,1.26.94s-.09,1.43-1.09,1.47c-.23,0-.46.14-.7.16-.68.08-1.16.35-1.1,1.14a.39.39,0,0,1,0,.18c-.5,1.39-.21,2.44,1.26,3,.67.27.73.77.47,1.43a1,1,0,0,1-1.29.8c-2.07-.33-2.58-.08-3.52,1.72a1,1,0,0,0,0,.75,5.46,5.46,0,0,0,.64,1.09,1.08,1.08,0,0,1-.13,1.66c-.62.55-1.15.53-1.64,0-.93-1.08-1.79-1-3-.28-.9.53-1.25,1-1,2,0,.12,0,.24.05.36.18.7.12,1.21-.75,1.44s-1.27,0-1.52-.77c-.1-.31-.29-.6-.41-.91a.93.93,0,0,0-1.21-.65.14.14,0,0,1-.09,0c-1.62-.18-2.63.43-2.89,2.13-.09.58-.54.75-1.11.62s-1.25-.22-1.11-1c.29-1.79-.57-2.63-2.18-3.08-.55-.15-.9-.19-1.28.24-.22.25-.51.43-.71.69-.74.94-1.35.56-2.1-.22a.92.92,0,0,1,0-.88A2.19,2.19,0,0,0,6,154.6c-.62-.56-1.06-.9-1.85-.5-.24.12-.51.17-.76.28-.68.28-1.06,0-1.38-.59s-.38-1.09.27-1.47c1.18-.69,1.69-1.5,1.05-2.95-.53-1.22-.37-1.3-1.88-1.42-1.3-.1-1.46-.22-1.34-1.46,0-.31.42-.81.68-.83a2.34,2.34,0,0,0,2.44-2.46c.08-.86,0-1.37-.74-1.74-.27-.12-.5-.34-.77-.49-.6-.33-.62-.78-.37-1.37s.57-.93,1.3-.79c2.21.42,2.32.36,3.46-1.59a1.1,1.1,0,0,0,0-.82,4.51,4.51,0,0,0-.64-1.1,1.07,1.07,0,0,1,.19-1.7c.66-.59,1.11-.34,1.65.12,1.27,1.07,1.24,1,2.76.3a1.63,1.63,0,0,0,1.16-2.15c-.13-.56-.42-1.31.59-1.63s1.39-.13,1.68.75c.07.23.22.44.3.66.23.72.69.83,1.45.86,1.63.09,2.54-.5,2.81-2.13.09-.58.52-.78,1.09-.66s1.18.18,1.13,1a6.25,6.25,0,0,0,0,.85"/></g><g class="cls-2"><path id="Fill-25" class="cls-4" d="M9,144.43a7.6,7.6,0,0,1,14.9,3,7.52,7.52,0,0,1-8.85,6,7.73,7.73,0,0,1-6.05-9m5.48,12.08A10.62,10.62,0,0,0,27,148,10.74,10.74,0,0,0,5.94,143.8a10.94,10.94,0,0,0,8.56,12.71"/></g><g class="cls-2"><polygon id="Fill-26" class="cls-5" points="37.32 40.89 63.7 27.11 76.62 49.54 63.31 62.23 44.82 63.74 37.32 40.89"/></g><g class="cls-2"><polygon id="Fill-27" class="cls-3" points="45.83 22.09 80.11 21.15 55.68 46.94 21.15 47.31 45.83 22.09"/></g><g class="cls-2"><path id="Fill-28" class="cls-6" d="M35,48.09c.55-.44,13.24-11.69,14-12.59-4.2,3-15.78,12.62-15.8,12.63S39.25,60.85,39,60.2c-.2.8-.66,3.77-.69,3.92a5.56,5.56,0,0,0,1-.05c-.1-1.16-.18-2.45-.21-3.67l1.17,3.47a3,3,0,0,0,.93-.27c0-.08-1.73-3.08-1.78-3.22.87.79,1.74,1.66,2.5,2.46a5.45,5.45,0,0,0,.68-.7c-.13-.07-2.4-1.49-3.26-2-1.43-3.84-2.75-7.91-4.36-12.08"/></g><g class="cls-2"><path id="Fill-29" class="cls-7" d="M51.36,35.89c-1.37.61-2.74.48-3.08-.28s.51-1.87,1.87-2.47,2.74-.48,3.07.28-.5,1.87-1.86,2.47"/></g><g class="cls-2"><path id="Stroke-30" class="cls-8" d="M228.2,36.12,213.46,16.21"/></g><g class="cls-2"><path id="Stroke-31" class="cls-9" d="M208.24,50.9,193.5,31"/></g><g class="cls-2"><path id="Stroke-32" class="cls-10" d="M218.79,14l13.05,17.62"/></g><g class="cls-2"><path id="Stroke-33" class="cls-8" d="M209.94,20.59l13,17.62"/></g><g class="cls-2"><path id="Stroke-34" class="cls-8" d="M198.8,28.84l13,17.62"/></g><g class="cls-2"><path id="Stroke-35" class="cls-8" d="M230,5.71l13,17.62"/></g><g class="cls-2"><path id="Stroke-36" class="cls-9" d="M190,35.36,203,53"/></g><g class="cls-2"><path id="Stroke-37" class="cls-9" d="M248.07,21.39,233.33,1.48"/></g><g class="cls-2"><path id="Stroke-38" class="cls-8" d="M188.34,65.65,173.6,45.74"/></g><g class="cls-2"><path id="Stroke-39" class="cls-8" d="M178.93,43.56l13,17.62"/></g><g class="cls-11"><path id="Stroke-40" class="cls-12" d="M235.57.14a11.84,11.84,0,0,0-2.15,1.28,12.55,12.55,0,0,0-1.86,1.69,12.34,12.34,0,0,0-1.44,2"/></g><g class="cls-2"><path id="Stroke-41" class="cls-12" d="M210.17,19.86a12.18,12.18,0,0,1,1.43-2,12.49,12.49,0,0,1,1.86-1.68,12.89,12.89,0,0,1,2.15-1.29,12.31,12.31,0,0,1,2.3-.8s4.2-1.13,12.9,4.65,12.89,4.65,12.89,4.65a12.18,12.18,0,0,0,4.46-2.09A12,12,0,0,0,250,19.64"/></g><g class="cls-2"><path id="Stroke-42" class="cls-12" d="M191.65,32.68A13,13,0,0,1,193.5,31a12.52,12.52,0,0,1,2.16-1.28,11.86,11.86,0,0,1,2.3-.81s4.2-1.12,12.89,4.65,12.9,4.65,12.9,4.65a12.31,12.31,0,0,0,2.3-.8,12.83,12.83,0,0,0,2.15-1.28,12.55,12.55,0,0,0,1.86-1.69,12,12,0,0,0,1.44-2"/></g><g class="cls-2"><path id="Stroke-43" class="cls-12" d="M231.5,32.46a12,12,0,0,1-1.44,2,12.55,12.55,0,0,1-1.86,1.69,12.83,12.83,0,0,1-2.15,1.28,11.63,11.63,0,0,1-2.3.8"/></g><g class="cls-2"><path id="Stroke-44" class="cls-12" d="M230.12,5.07s-2.3,3.69.69,13.7.69,13.69.69,13.69"/></g><g class="cls-2"><path id="Stroke-45" class="cls-12" d="M211.54,47.25a12.34,12.34,0,0,1-1.44,2,12.75,12.75,0,0,1-4,3"/></g><g class="cls-2"><path id="Stroke-46" class="cls-12" d="M210.17,19.86s-2.31,3.69.68,13.69.69,13.7.69,13.7"/></g><g class="cls-2"><path id="Stroke-47" class="cls-12" d="M195.71,29.67A11.84,11.84,0,0,0,193.56,31a12.55,12.55,0,0,0-1.86,1.69,12.34,12.34,0,0,0-1.44,2"/></g><g class="cls-2"><path id="Stroke-48" class="cls-12" d="M170.31,49.39a13.53,13.53,0,0,1,1.43-2,12.82,12.82,0,0,1,4-3,12.7,12.7,0,0,1,2.29-.8s4.2-1.13,12.9,4.65S203.85,53,203.85,53a12.24,12.24,0,0,0,4.45-2.09,11.51,11.51,0,0,0,1.85-1.69"/></g><g class="cls-2"><path id="Stroke-49" class="cls-12" d="M191.64,62a12.34,12.34,0,0,1-1.44,2,12.52,12.52,0,0,1-4,3,12.35,12.35,0,0,1-2.3.81"/></g><g class="cls-2"><path id="Stroke-50" class="cls-12" d="M190.26,34.6s-2.3,3.69.69,13.7.69,13.7.69,13.7"/></g><g class="cls-2"><path id="Fill-51" class="cls-3" d="M215.69,23.18a2.31,2.31,0,1,1,3.24.48,2.32,2.32,0,0,1-3.24-.48"/></g><g class="cls-2"><path id="Fill-52" class="cls-5" d="M196.16,38.58a2.42,2.42,0,1,1,3.4.51,2.43,2.43,0,0,1-3.4-.51"/></g><g class="cls-2"><path id="Fill-53" class="cls-5" d="M241.31,17.74a3.24,3.24,0,1,1,4.53.67,3.24,3.24,0,0,1-4.53-.67"/></g><g class="cls-2"><path id="Fill-54" class="cls-4" d="M183.88,55.27a3,3,0,1,1,4.18.62,3,3,0,0,1-4.18-.62"/></g><g class="cls-2"><path id="Fill-55" class="cls-3" d="M215.67,33.66a3.26,3.26,0,1,1,4.55.68,3.27,3.27,0,0,1-4.55-.68"/></g><g class="cls-2"><path id="Fill-56" class="cls-6" d="M223.27,25.83a3.42,3.42,0,1,1,4.79.72,3.42,3.42,0,0,1-4.79-.72"/></g><g class="cls-2"><polygon id="Fill-57" class="cls-4" points="219.56 155.46 226.13 162.26 204.73 183.18 195.67 174.68 219.56 155.46"/></g><g class="cls-2"><polygon id="Fill-58" class="cls-5" points="178.85 190.34 196.71 175.56 204.05 182.49 187.56 200.24 178.85 190.34"/></g><g class="cls-2"><polygon id="Fill-59" class="cls-3" points="199.94 169.45 206.42 164.09 216.11 174.91 210.23 180.93 199.94 169.45"/></g><g class="cls-2"><polygon id="Fill-60" class="cls-4" points="161.44 247.99 175.63 228.92 180.82 230.46 175.4 252.17 161.44 247.99"/></g><g class="cls-2"><polygon id="Fill-61" class="cls-6" points="151.8 218.22 150.69 221.53 185.13 231.85 186.07 228.85 151.8 218.22"/></g><g class="cls-2"><polygon id="Fill-62" class="cls-5" points="184.57 205.5 168.3 186.65 170.39 184.84 186.67 203.69 184.57 205.5"/></g><g class="cls-2"><path id="Fill-63" class="cls-5" d="M187.68,200.12s9.69,9,8.73,20.44C195.3,233.8,181,239.71,181,239.71l-5.53-.85L172.33,250,141,242.76l-5.78,4.43,51.91,16.24L184,248.27s18.87-8,21.32-26.38c2-15.23-12.31-27.51-12.31-27.51Z"/></g><g class="cls-2"><path id="Fill-64" class="cls-6" d="M196,193.24a3.48,3.48,0,1,1,4.37-2.28,3.48,3.48,0,0,1-4.37,2.28"/></g><g class="cls-2"><polygon id="Fill-65" class="cls-6" points="186.7 203.72 170.35 184.9 173.89 184.13 187.7 200.12 186.7 203.72"/></g><g class="cls-2"><polygon id="Fill-66" class="cls-5" points="169.61 187.38 161.22 189.96 161.81 193.27 173.28 192.16 169.61 187.38"/></g><g class="cls-2"><polygon id="Fill-67" class="cls-5" points="175.49 193.41 178.95 196.95 170.19 202.03 168.58 200.26 175.49 193.41"/></g><g class="cls-2"><polygon id="Fill-68" class="cls-5" points="184.17 203.57 181.3 200.26 179.02 208.87 181.23 209.53 184.17 203.57"/></g><g class="cls-2"><path id="Fill-69" class="cls-3" d="M234.8,114.82a26.2,26.2,0,0,0,3.1.5,17.62,17.62,0,0,0,3.82,3.65,22.8,22.8,0,0,0,7.51,3.81l.58.14a.25.25,0,0,0,.29-.18c0-.12-.06-.26-.15-.41,0,0-3.08-2.11-4.21-4.61a3,3,0,0,1,.07-2.84c5.19-1.47,8.84-4.8,9.86-9,2.2-7.53-4.4-15.57-14.35-18S221.94,89.64,220.15,97s4.82,15.42,14.65,17.81"/></g><g class="cls-2"><path id="Fill-70" class="cls-4" d="M204.37,115.13a4.33,4.33,0,0,0,4-1.64,3.3,3.3,0,0,0,.88-2.63c-3.76-3.4-5.16-7.33-4.2-11.31a11.6,11.6,0,0,1,4.86-6.76A12.78,12.78,0,0,1,220,91.4a.43.43,0,0,1,.21.18.22.22,0,0,1-.09.35,12.41,12.41,0,0,0-2.25,11.85c1.88,5.54,7.38,10.46,13.58,12a.43.43,0,0,1,.21.17.23.23,0,0,1-.08.35c-.06.24-2,2.24-11.63-.09-.94-.22-2.78-.8-3.92-1.2a22.73,22.73,0,0,1-6.47,1.66,11.42,11.42,0,0,1-3.89-.32,7,7,0,0,1-1.82-.69.69.69,0,0,1-.15-.41c.27-.06.41-.15.65-.09"/></g></g></g></g></svg>
